<?xml version="1.0" encoding="utf-8"?>
<!-- Generator: Adobe Illustrator 26.0.0, SVG Export Plug-In . SVG Version: 6.00 Build 0)  -->
<svg version="1.1" id="Camada_1" xmlns="http://www.w3.org/2000/svg" xmlns:xlink="http://www.w3.org/1999/xlink" x="0px" y="0px"
	 viewBox="0 0 1466 1377" style="enable-background:new 0 0 1466 1377;" xml:space="preserve">
<style type="text/css">
	
		.st0{fill:url(#SVGID_1_);stroke:url(#SVGID_00000118397411680592431860000010231738767319081619_);stroke-width:130.14;stroke-miterlimit:10;}
	
		.st1{fill:url(#SVGID_00000004546790844086738480000013760417513198336428_);stroke:url(#SVGID_00000146486438687084017650000000194798653638546599_);stroke-width:135.1629;stroke-miterlimit:10;}
</style>
<g>
	
		<radialGradient id="SVGID_1_" cx="424.3715" cy="900.8343" r="52.0408" gradientTransform="matrix(6.188 0 0 -7.7866 -2254.8967 7730.9336)" gradientUnits="userSpaceOnUse">
		<stop  offset="0" style="stop-color:#FFFFFF"/>
		<stop  offset="8.510000e-02" style="stop-color:#FFEDD8"/>
		<stop  offset="0.2082" style="stop-color:#FFD5A7"/>
		<stop  offset="0.3345" style="stop-color:#FFC17D"/>
		<stop  offset="0.462" style="stop-color:#FFB05B"/>
		<stop  offset="0.591" style="stop-color:#FFA340"/>
		<stop  offset="0.7222" style="stop-color:#FF9A2D"/>
		<stop  offset="0.8568" style="stop-color:#FF9522"/>
		<stop  offset="1" style="stop-color:#FF931E"/>
	</radialGradient>
	
		<linearGradient id="SVGID_00000150079627311845848540000010128102722120638639_" gradientUnits="userSpaceOnUse" x1="220.012" y1="178.8506" x2="401.9954" y2="1210.9298" gradientTransform="matrix(1 0 0 -1 0 1378)">
		<stop  offset="6.090000e-02" style="stop-color:#FFFFFF"/>
		<stop  offset="0.2531" style="stop-color:#F4F4F4"/>
		<stop  offset="0.5184" style="stop-color:#808080"/>
		<stop  offset="0.776" style="stop-color:#FFFFFF"/>
	</linearGradient>
	
		<path style="fill:url(#SVGID_1_);stroke:url(#SVGID_00000150079627311845848540000010128102722120638639_);stroke-width:130.14;stroke-miterlimit:10;" d="
		M677.2,392.4H419.1v748.3h-96V392.4H65V292.1h612.2V392.4z"/>
	
		<radialGradient id="SVGID_00000172442805731110299940000013075463865239699370_" cx="542.8489" cy="899.8286" r="52.5935" gradientTransform="matrix(6.5091 0 0 -7.9849 -2449.5747 7915.1309)" gradientUnits="userSpaceOnUse">
		<stop  offset="0" style="stop-color:#FFFFFF"/>
		<stop  offset="8.510000e-02" style="stop-color:#FFEDD8"/>
		<stop  offset="0.2082" style="stop-color:#FFD5A7"/>
		<stop  offset="0.3345" style="stop-color:#FFC17D"/>
		<stop  offset="0.462" style="stop-color:#FFB05B"/>
		<stop  offset="0.591" style="stop-color:#FFA340"/>
		<stop  offset="0.7222" style="stop-color:#FF9A2D"/>
		<stop  offset="0.8568" style="stop-color:#FF9522"/>
		<stop  offset="1" style="stop-color:#FF931E"/>
	</radialGradient>
	
		<linearGradient id="SVGID_00000129913291983755084890000017924339812802605232_" gradientUnits="userSpaceOnUse" x1="1120.9662" y1="120.955" x2="1301.7098" y2="1146.0031" gradientTransform="matrix(1 0 0 -1 0 1378)">
		<stop  offset="6.090000e-02" style="stop-color:#FFFFFF"/>
		<stop  offset="0.2531" style="stop-color:#F4F4F4"/>
		<stop  offset="0.5184" style="stop-color:#808080"/>
		<stop  offset="0.776" style="stop-color:#FFFFFF"/>
	</linearGradient>
	
		<path style="fill:url(#SVGID_00000172442805731110299940000013075463865239699370_);stroke:url(#SVGID_00000129913291983755084890000017924339812802605232_);stroke-width:135.1629;stroke-miterlimit:10;" d="
		M1399,1102.1c-18.7,9.3-35.6,18.1-50.8,26.3c-15.1,8.2-55.7,16.8-80.2,25.7c-20.8,7.4-43.3,13.7-67.6,19
		c-24.3,5.3-51.1,7.9-80.4,7.9c-55.1,0-105.2-8.9-150.3-26.6c-45.1-17.7-63.6-45.5-96.9-83.3c-32.7-37-58.2-84.1-76.5-141.1
		c-18.4-57.1-27.6-123.4-27.6-199c0-71.7,8.8-135.8,26.5-192.3c17.7-56.5,43.2-104.2,76.5-143.2c32.3-37.8,71.3-66.6,117.1-86.5
		c45.7-19.9,96.5-29.8,152.3-29.8c40.8,0,81.6,5.7,122.2,16.9c40.6,11.3,85.8,31.2,135.5,59.6v137.3h-7.7
		c-41.8-40.1-83.4-69.3-124.5-87.7c-41.2-18.3-85.2-27.5-132.2-27.5c-38.4,0-73.1,7.1-103.8,21.3c-30.8,14.2-58.3,36.3-82.4,66.3
		c-23.5,29.2-41.8,66.1-54.9,110.8c-13.1,44.6-19.7,96.1-19.7,154.6c0,61.2,7.2,113.8,21.7,157.8c14.5,44,33.1,79.9,55.9,107.5
		c23.8,28.8,51.6,50.2,83.4,64c31.8,13.8,65.4,20.8,100.8,20.8c48.6,0,94.2-9.5,136.8-28.6c42.5-19.1,82.3-47.7,119.4-85.9h7.1
		L1399,1102.1L1399,1102.1z"/>
</g>
</svg>
