<svg width="82" height="79" viewBox="0 0 82 79" fill="none" xmlns="http://www.w3.org/2000/svg">
<path d="M38.8211 61.62C32.6666 61.3396 26.8608 58.7847 22.6095 54.486C18.3583 50.1874 15.9884 44.4754 15.9922 38.5366C15.9922 25.781 26.747 15.4146 39.9805 15.4146C52.8542 15.4146 63.3291 25.1644 63.9288 37.419L55.5329 34.9912C54.8794 32.3198 53.4976 29.8651 51.5303 27.8807C49.563 25.8964 47.0816 24.4546 44.3425 23.7042C41.6035 22.9538 38.7062 22.9221 35.9503 23.6124C33.1943 24.3027 30.6796 25.69 28.6661 27.6308C26.6525 29.5715 25.2133 31.9954 24.4972 34.6519C23.781 37.3084 23.8138 40.101 24.5923 42.7411C25.3708 45.3812 26.8667 47.773 28.9254 49.6693C30.9841 51.5655 33.5308 52.8974 36.3023 53.5273L38.8211 61.62ZM79.961 38.5366C79.961 39.6927 79.921 40.8488 79.8011 42.0049L71.9249 39.7312C71.9649 39.3459 71.9649 38.922 71.9649 38.5366C71.9649 21.5034 57.6519 7.70732 39.9805 7.70732C22.3091 7.70732 7.9961 21.5034 7.9961 38.5366C7.9961 55.5698 22.3091 69.3659 39.9805 69.3659C40.3803 69.3659 40.8201 69.3659 41.2199 69.3273L43.5787 76.919C42.3793 77.0346 41.1799 77.0732 39.9805 77.0732C17.9113 77.0732 0 59.8088 0 38.5366C0 17.2644 17.9113 0 39.9805 0C62.0497 0 79.961 17.2644 79.961 38.5366ZM64.8883 54.9532L79.961 50.0976L39.9805 38.5366L51.9746 77.0732L57.0122 62.5449L74.0839 79L82 71.3698L64.8883 54.9532Z" fill="#365DA7"/>
</svg>
