<svg width="127" height="245" viewBox="0 0 127 245" fill="none" xmlns="http://www.w3.org/2000/svg">
<path d="M106.565 0H87.435C86.524 0 85.6503 0.284162 85.0061 0.789972C84.3619 1.29578 84 1.98181 84 2.69713V5.30287C84 5.65706 84.0888 6.00778 84.2615 6.33501C84.4341 6.66225 84.6871 6.95958 85.0061 7.21003C85.6503 7.71584 86.524 8 87.435 8H106.565C107.016 8 107.463 7.93024 107.88 7.79469C108.296 7.65915 108.675 7.46048 108.994 7.21003C109.313 6.95958 109.566 6.66225 109.739 6.33501C109.911 6.00778 110 5.65706 110 5.30287V2.69713C110 1.98181 109.638 1.29578 108.994 0.789972C108.35 0.284162 107.476 0 106.565 0V0Z" fill="#8F9799"/>
<path d="M127 14.5746V183.425C127 189.818 120.96 195 113.51 195H13.4903C6.03972 195 0 189.818 0 183.425V14.5746C0 8.18204 6.03972 3 13.4903 3H113.51C120.96 3 127 8.18204 127 14.5746Z" fill="#464A4C"/>
<path d="M118 20.7787V161.221C118 164.413 114.99 167 111.276 167H16.724C13.0104 167 10 164.413 10 161.221V20.7787C10 17.5872 13.0104 15 16.724 15H111.276C114.99 15 118 17.5872 118 20.7787Z" fill="#CAD6D8"/>
<path d="M10 131V20.0052C10 17.2406 12.7367 15 16.113 15H90L10 131Z" fill="#F4F9F9"/>
<path d="M53.9649 186H73.0351C76.3296 186 79 183.582 79 180.599V180.401C79 177.418 76.3296 175 73.0351 175H53.9649C50.6704 175 48 177.418 48 180.401V180.599C48 183.582 50.6704 186 53.9649 186Z" fill="#8F9799"/>
<path d="M62.198 111.1C58.5203 110.94 55.0509 109.485 52.5106 107.036C49.9702 104.588 48.554 101.334 48.5563 97.9512C48.5563 90.6854 54.9829 84.7805 62.8908 84.7805C70.5836 84.7805 76.843 90.3341 77.2014 97.3146L72.1843 95.9317C71.7938 94.41 70.9681 93.0117 69.7925 91.8814C68.6169 90.7511 67.1341 89.9298 65.4974 89.5024C63.8606 89.0749 62.1293 89.0569 60.4825 89.4501C58.8356 89.8433 57.3329 90.6335 56.1297 91.739C54.9265 92.8446 54.0665 94.2253 53.6385 95.7384C53.2106 97.2516 53.2302 98.8423 53.6954 100.346C54.1606 101.85 55.0545 103.212 56.2847 104.293C57.5149 105.373 59.0367 106.131 60.6928 106.49L62.198 111.1V111.1ZM86.7816 97.9512C86.7816 98.6098 86.7577 99.2683 86.686 99.9268L81.9795 98.6317C82.0034 98.4122 82.0034 98.1707 82.0034 97.9512C82.0034 88.2488 73.4505 80.3902 62.8908 80.3902C52.3311 80.3902 43.7782 88.2488 43.7782 97.9512C43.7782 107.654 52.3311 115.512 62.8908 115.512C63.1297 115.512 63.3925 115.512 63.6314 115.49L65.041 119.815C64.3242 119.88 63.6075 119.902 62.8908 119.902C49.7031 119.902 39 110.068 39 97.9512C39 85.8341 49.7031 76 62.8908 76C76.0785 76 86.7816 85.8341 86.7816 97.9512ZM77.7747 107.302L86.7816 104.537L62.8908 97.9512L70.058 119.902L73.0683 111.627L83.2696 121L88 116.654L77.7747 107.302Z" fill="#365DA7"/>
<g filter="url(#filter0_d_170_4)">
<path d="M31.1496 221.953H27.8293C27.7346 221.408 27.56 220.926 27.3055 220.506C27.051 220.08 26.7344 219.719 26.3556 219.423C25.9768 219.127 25.5448 218.905 25.0594 218.757C24.58 218.603 24.0622 218.526 23.5058 218.526C22.5174 218.526 21.6415 218.775 20.878 219.272C20.1145 219.763 19.5167 220.485 19.0847 221.438C18.6526 222.385 18.4366 223.542 18.4366 224.909C18.4366 226.3 18.6526 227.472 19.0847 228.425C19.5226 229.372 20.1204 230.088 20.878 230.573C21.6415 231.053 22.5145 231.292 23.4969 231.292C24.0414 231.292 24.5504 231.221 25.0239 231.079C25.5033 230.931 25.9324 230.715 26.3112 230.431C26.6959 230.147 27.0185 229.798 27.2789 229.384C27.5452 228.969 27.7287 228.496 27.8293 227.963L31.1496 227.981C31.0253 228.845 30.7561 229.656 30.3418 230.413C29.9334 231.171 29.3977 231.84 28.7349 232.42C28.072 232.994 27.2967 233.444 26.4089 233.769C25.5211 234.089 24.5356 234.249 23.4525 234.249C21.8545 234.249 20.4282 233.879 19.1734 233.139C17.9187 232.399 16.9303 231.331 16.2082 229.934C15.4862 228.537 15.1251 226.862 15.1251 224.909C15.1251 222.95 15.4891 221.275 16.2171 219.884C16.9451 218.487 17.9364 217.419 19.1912 216.679C20.4459 215.94 21.8664 215.57 23.4525 215.57C24.4646 215.57 25.4057 215.712 26.2757 215.996C27.1457 216.28 27.9211 216.697 28.6017 217.248C29.2823 217.792 29.8416 218.461 30.2796 219.254C30.7235 220.041 31.0135 220.941 31.1496 221.953ZM42.3108 234.266C40.9436 234.266 39.7628 233.982 38.7685 233.414C37.7801 232.84 37.0196 232.029 36.4869 230.982C35.9542 229.928 35.6879 228.688 35.6879 227.262C35.6879 225.859 35.9542 224.628 36.4869 223.569C37.0255 222.503 37.7772 221.675 38.7419 221.083C39.7066 220.485 40.84 220.186 42.1421 220.186C42.9825 220.186 43.7756 220.322 44.5214 220.594C45.273 220.861 45.9359 221.275 46.51 221.837C47.09 222.4 47.5457 223.116 47.8772 223.986C48.2086 224.85 48.3743 225.88 48.3743 227.075V228.061H37.1971V225.895H45.2937C45.2878 225.279 45.1546 224.732 44.8942 224.252C44.6338 223.767 44.2698 223.385 43.8022 223.107C43.3406 222.829 42.802 222.69 42.1865 222.69C41.5295 222.69 40.9525 222.849 40.4553 223.169C39.9581 223.483 39.5705 223.897 39.2923 224.412C39.02 224.921 38.881 225.48 38.875 226.09V227.981C38.875 228.774 39.02 229.455 39.3101 230.023C39.6001 230.585 40.0055 231.017 40.5263 231.319C41.0472 231.615 41.6568 231.763 42.3552 231.763C42.8227 231.763 43.2459 231.698 43.6247 231.567C44.0035 231.431 44.332 231.233 44.6101 230.973C44.8883 230.712 45.0984 230.39 45.2405 230.005L48.2412 230.342C48.0518 231.135 47.6907 231.828 47.1581 232.42C46.6313 233.006 45.9566 233.461 45.1339 233.787C44.3112 234.107 43.3702 234.266 42.3108 234.266ZM56.557 215.818V234H53.3432V215.818H56.557ZM70.8031 228.265V220.364H74.0169V234H70.9008V231.576H70.7587C70.451 232.34 69.9449 232.964 69.2406 233.45C68.5422 233.935 67.6811 234.178 66.6572 234.178C65.7635 234.178 64.9734 233.979 64.2868 233.583C63.6062 233.18 63.0735 232.597 62.6888 231.834C62.3041 231.064 62.1117 230.135 62.1117 229.046V220.364H65.3255V228.549C65.3255 229.413 65.5622 230.1 66.0357 230.609C66.5092 231.118 67.1307 231.372 67.9001 231.372C68.3736 231.372 68.8323 231.257 69.2761 231.026C69.72 230.795 70.084 230.452 70.3681 229.996C70.6581 229.534 70.8031 228.957 70.8031 228.265ZM82.7855 215.818V234H79.5717V215.818H82.7855ZM92.2642 234.275C91.4001 234.275 90.6218 234.121 89.9294 233.814C89.2428 233.5 88.6983 233.038 88.2959 232.429C87.8993 231.819 87.701 231.067 87.701 230.174C87.701 229.404 87.8431 228.768 88.1272 228.265C88.4113 227.762 88.7989 227.359 89.2902 227.058C89.7814 226.756 90.3348 226.528 90.9503 226.374C91.5718 226.214 92.2139 226.099 92.8768 226.028C93.6758 225.945 94.3239 225.871 94.8211 225.806C95.3182 225.735 95.6793 225.628 95.9042 225.486C96.135 225.338 96.2504 225.11 96.2504 224.803V224.749C96.2504 224.08 96.0521 223.563 95.6556 223.196C95.259 222.829 94.6879 222.645 93.9422 222.645C93.155 222.645 92.5306 222.817 92.0689 223.16C91.6132 223.503 91.3054 223.909 91.1456 224.376L88.1449 223.95C88.3817 223.122 88.7723 222.429 89.3168 221.873C89.8613 221.311 90.5272 220.89 91.3143 220.612C92.1015 220.328 92.9715 220.186 93.9244 220.186C94.5814 220.186 95.2354 220.263 95.8864 220.417C96.5375 220.571 97.1323 220.825 97.6709 221.18C98.2094 221.53 98.6415 222.006 98.967 222.61C99.2985 223.213 99.4642 223.968 99.4642 224.874V234H96.3747V232.127H96.2682C96.0728 232.506 95.7976 232.861 95.4425 233.192C95.0933 233.518 94.6524 233.781 94.1197 233.982C93.593 234.178 92.9745 234.275 92.2642 234.275ZM93.0988 231.914C93.7439 231.914 94.3032 231.786 94.7767 231.532C95.2502 231.272 95.6142 230.928 95.8687 230.502C96.1291 230.076 96.2593 229.611 96.2593 229.108V227.501C96.1587 227.584 95.987 227.661 95.7444 227.732C95.5076 227.803 95.2413 227.865 94.9454 227.919C94.6494 227.972 94.3565 228.019 94.0665 228.061C93.7764 228.102 93.5249 228.138 93.3118 228.167C92.8324 228.232 92.4033 228.339 92.0245 228.487C91.6458 228.635 91.3469 228.842 91.1279 229.108C90.9089 229.369 90.7994 229.706 90.7994 230.12C90.7994 230.712 91.0154 231.159 91.4475 231.461C91.8795 231.763 92.43 231.914 93.0988 231.914ZM104.946 234V220.364H108.062V222.636H108.204C108.452 221.849 108.879 221.243 109.482 220.816C110.092 220.384 110.787 220.168 111.569 220.168C111.746 220.168 111.944 220.177 112.163 220.195C112.388 220.207 112.575 220.228 112.723 220.257V223.213C112.587 223.166 112.371 223.125 112.075 223.089C111.785 223.048 111.503 223.027 111.231 223.027C110.645 223.027 110.119 223.154 109.651 223.409C109.189 223.657 108.825 224.004 108.559 224.447C108.293 224.891 108.159 225.403 108.159 225.983V234H104.946Z" fill="black"/>
</g>
<defs>
<filter id="filter0_d_170_4" x="11.1251" y="215.57" width="105.598" height="26.7056" filterUnits="userSpaceOnUse" color-interpolation-filters="sRGB">
<feFlood flood-opacity="0" result="BackgroundImageFix"/>
<feColorMatrix in="SourceAlpha" type="matrix" values="0 0 0 0 0 0 0 0 0 0 0 0 0 0 0 0 0 0 127 0" result="hardAlpha"/>
<feOffset dy="4"/>
<feGaussianBlur stdDeviation="2"/>
<feComposite in2="hardAlpha" operator="out"/>
<feColorMatrix type="matrix" values="0 0 0 0 0 0 0 0 0 0 0 0 0 0 0 0 0 0 0.25 0"/>
<feBlend mode="normal" in2="BackgroundImageFix" result="effect1_dropShadow_170_4"/>
<feBlend mode="normal" in="SourceGraphic" in2="effect1_dropShadow_170_4" result="shape"/>
</filter>
</defs>
</svg>
