<svg width="203" height="245" viewBox="0 0 203 245" fill="none" xmlns="http://www.w3.org/2000/svg">
<path d="M196.656 17.1562C196.656 11.4375 190.312 5.71875 183.969 5.71875H19.0312C12.6875 5.71875 6.34375 11.4375 6.34375 17.1562V125.812H196.656V17.1562Z" fill="#212528"/>
<path d="M6.34375 125.812V137.25C6.34375 142.969 12.6875 148.688 19.0312 148.688H183.969C190.312 148.688 196.656 142.969 196.656 137.25V125.812H6.34375Z" fill="#DDDDDD"/>
<path d="M76.125 154.406C76.125 165.844 63.4375 165.844 50.75 165.844H152.25C139.562 165.844 126.875 165.844 126.875 154.406V148.688H76.125V154.406Z" fill="#BFBEBE"/>
<path d="M19.0312 17.1562H183.969V114.375H19.0312V17.1562Z" fill="#C9D6E1"/>
<path d="M101.5 139.823C103.252 139.823 104.672 138.543 104.672 136.964C104.672 135.385 103.252 134.104 101.5 134.104C99.7482 134.104 98.3281 135.385 98.3281 136.964C98.3281 138.543 99.7482 139.823 101.5 139.823Z" fill="#94989B"/>
<path d="M50.75 165.844H152.25V177.281H50.75V165.844Z" fill="#94989B"/>
<path d="M100.489 89.0108C96.7814 88.8514 93.2841 87.3994 90.7233 84.9564C88.1624 82.5134 86.7349 79.2671 86.7372 75.8919C86.7372 68.6426 93.2155 62.7512 101.187 62.7512C108.942 62.7512 115.252 68.2922 115.613 75.2568L110.555 73.877C110.162 72.3588 109.329 70.9637 108.144 69.836C106.959 68.7083 105.465 67.8888 103.815 67.4624C102.165 67.0359 100.42 67.0179 98.7594 67.4102C97.0992 67.8025 95.5844 68.5909 94.3716 69.6939C93.1587 70.7969 92.2917 72.1745 91.8603 73.6842C91.4289 75.1939 91.4487 76.781 91.9177 78.2815C92.3866 79.7819 93.2877 81.1412 94.5278 82.2189C95.7679 83.2966 97.3019 84.0536 98.9714 84.4115L100.489 89.0108ZM125.27 75.8919C125.27 76.549 125.246 77.206 125.174 77.8631L120.43 76.5709C120.454 76.3519 120.454 76.111 120.454 75.8919C120.454 66.2116 111.832 58.371 101.187 58.371C90.5423 58.371 81.9205 66.2116 81.9205 75.8919C81.9205 85.5723 90.5423 93.4129 101.187 93.4129C101.428 93.4129 101.693 93.4129 101.934 93.391L103.355 97.7056C102.632 97.7713 101.91 97.7932 101.187 97.7932C87.8932 97.7932 77.1039 87.9814 77.1039 75.8919C77.1039 63.8025 87.8932 53.9907 101.187 53.9907C114.481 53.9907 125.27 63.8025 125.27 75.8919ZM116.191 85.2219L125.27 82.4623L101.187 75.8919L108.412 97.7932L111.447 89.5364L121.73 98.8882L126.499 94.5518L116.191 85.2219Z" fill="#365DA7"/>
<g filter="url(#filter0_d_180_8)">
<path d="M40.3401 218.953H37.0198C36.9251 218.408 36.7505 217.926 36.496 217.506C36.2415 217.08 35.9248 216.719 35.546 216.423C35.1672 216.127 34.7352 215.905 34.2499 215.757C33.7705 215.603 33.2526 215.526 32.6962 215.526C31.7078 215.526 30.8319 215.775 30.0684 216.272C29.3049 216.763 28.7071 217.485 28.2751 218.438C27.843 219.385 27.627 220.542 27.627 221.909C27.627 223.3 27.843 224.472 28.2751 225.425C28.7131 226.372 29.3108 227.088 30.0684 227.573C30.8319 228.053 31.7049 228.292 32.6874 228.292C33.2319 228.292 33.7409 228.221 34.2144 228.079C34.6938 227.931 35.1229 227.715 35.5016 227.431C35.8863 227.147 36.2089 226.798 36.4693 226.384C36.7357 225.969 36.9191 225.496 37.0198 224.963L40.3401 224.981C40.2158 225.845 39.9465 226.656 39.5322 227.413C39.1238 228.171 38.5882 228.84 37.9253 229.42C37.2624 229.994 36.4871 230.444 35.5993 230.769C34.7115 231.089 33.7261 231.249 32.643 231.249C31.045 231.249 29.6186 230.879 28.3639 230.139C27.1091 229.399 26.1207 228.331 25.3987 226.934C24.6766 225.537 24.3156 223.862 24.3156 221.909C24.3156 219.95 24.6796 218.275 25.4075 216.884C26.1355 215.487 27.1269 214.419 28.3816 213.679C29.6363 212.94 31.0568 212.57 32.643 212.57C33.6551 212.57 34.5961 212.712 35.4661 212.996C36.3362 213.28 37.1115 213.697 37.7921 214.248C38.4728 214.792 39.0321 215.461 39.47 216.254C39.9139 217.041 40.2039 217.941 40.3401 218.953ZM51.4124 231.266C50.0807 231.266 48.9266 230.973 47.9501 230.387C46.9735 229.801 46.2159 228.982 45.6773 227.928C45.1447 226.875 44.8783 225.644 44.8783 224.235C44.8783 222.826 45.1447 221.592 45.6773 220.533C46.2159 219.474 46.9735 218.651 47.9501 218.065C48.9266 217.479 50.0807 217.186 51.4124 217.186C52.7441 217.186 53.8982 217.479 54.8748 218.065C55.8513 218.651 56.606 219.474 57.1386 220.533C57.6772 221.592 57.9465 222.826 57.9465 224.235C57.9465 225.644 57.6772 226.875 57.1386 227.928C56.606 228.982 55.8513 229.801 54.8748 230.387C53.8982 230.973 52.7441 231.266 51.4124 231.266ZM51.4302 228.692C52.1522 228.692 52.7559 228.493 53.2413 228.097C53.7266 227.694 54.0876 227.156 54.3244 226.481C54.567 225.806 54.6883 225.055 54.6883 224.226C54.6883 223.392 54.567 222.637 54.3244 221.962C54.0876 221.282 53.7266 220.74 53.2413 220.338C52.7559 219.935 52.1522 219.734 51.4302 219.734C50.6904 219.734 50.0748 219.935 49.5836 220.338C49.0983 220.74 48.7343 221.282 48.4916 221.962C48.2549 222.637 48.1365 223.392 48.1365 224.226C48.1365 225.055 48.2549 225.806 48.4916 226.481C48.7343 227.156 49.0983 227.694 49.5836 228.097C50.0748 228.493 50.6904 228.692 51.4302 228.692ZM62.9242 231V217.364H65.996V219.681H66.1558C66.4399 218.9 66.9104 218.29 67.5673 217.852C68.2243 217.408 69.0085 217.186 69.92 217.186C70.8433 217.186 71.6216 217.411 72.2548 217.861C72.894 218.305 73.3439 218.911 73.6043 219.681H73.7463C74.0482 218.923 74.5572 218.319 75.2733 217.87C75.9954 217.414 76.8506 217.186 77.839 217.186C79.0937 217.186 80.1176 217.583 80.9107 218.376C81.7038 219.169 82.1004 220.326 82.1004 221.847V231H78.8777V222.344C78.8777 221.498 78.6528 220.879 78.203 220.489C77.7532 220.092 77.2028 219.894 76.5517 219.894C75.7764 219.894 75.1697 220.136 74.7318 220.622C74.2997 221.101 74.0837 221.726 74.0837 222.495V231H70.932V222.211C70.932 221.507 70.719 220.944 70.2928 220.524C69.8726 220.104 69.3222 219.894 68.6416 219.894C68.1799 219.894 67.7597 220.012 67.3809 220.249C67.0021 220.48 66.7003 220.808 66.4754 221.234C66.2505 221.655 66.138 222.146 66.138 222.708V231H62.9242ZM87.6108 236.114V217.364H90.7713V219.619H90.9577C91.1234 219.287 91.3572 218.935 91.659 218.562C91.9609 218.183 92.3693 217.861 92.8842 217.594C93.3991 217.322 94.0561 217.186 94.8551 217.186C95.9086 217.186 96.8585 217.455 97.7049 217.994C98.5571 218.527 99.2318 219.317 99.729 220.364C100.232 221.406 100.484 222.684 100.484 224.2C100.484 225.697 100.238 226.969 99.7468 228.017C99.2555 229.065 98.5867 229.864 97.7404 230.414C96.894 230.964 95.9352 231.24 94.8639 231.24C94.0827 231.24 93.4346 231.109 92.9197 230.849C92.4048 230.589 91.9905 230.275 91.6768 229.908C91.369 229.535 91.1293 229.183 90.9577 228.852H90.8245V236.114H87.6108ZM90.7624 224.182C90.7624 225.064 90.8867 225.836 91.1353 226.499C91.3898 227.162 91.7537 227.68 92.2272 228.053C92.7066 228.42 93.2867 228.603 93.9673 228.603C94.6775 228.603 95.2723 228.414 95.7517 228.035C96.2311 227.65 96.5922 227.126 96.8348 226.463C97.0834 225.795 97.2077 225.034 97.2077 224.182C97.2077 223.335 97.0864 222.584 96.8437 221.927C96.601 221.27 96.24 220.755 95.7606 220.382C95.2812 220.009 94.6834 219.823 93.9673 219.823C93.2807 219.823 92.6978 220.003 92.2184 220.364C91.7389 220.725 91.375 221.231 91.1264 221.882C90.8837 222.533 90.7624 223.3 90.7624 224.182ZM114.177 225.265V217.364H117.391V231H114.275V228.576H114.133C113.825 229.34 113.319 229.964 112.615 230.45C111.916 230.935 111.055 231.178 110.031 231.178C109.138 231.178 108.347 230.979 107.661 230.583C106.98 230.18 106.448 229.597 106.063 228.834C105.678 228.064 105.486 227.135 105.486 226.046V217.364H108.7V225.549C108.7 226.413 108.936 227.1 109.41 227.609C109.883 228.118 110.505 228.372 111.274 228.372C111.748 228.372 112.206 228.257 112.65 228.026C113.094 227.795 113.458 227.452 113.742 226.996C114.032 226.534 114.177 225.957 114.177 225.265ZM129.755 217.364V219.849H121.916V217.364H129.755ZM123.851 214.097H127.065V226.898C127.065 227.33 127.13 227.662 127.26 227.893C127.396 228.118 127.574 228.272 127.793 228.354C128.012 228.437 128.255 228.479 128.521 228.479C128.722 228.479 128.906 228.464 129.071 228.434C129.243 228.405 129.373 228.378 129.462 228.354L130.004 230.867C129.832 230.926 129.586 230.991 129.267 231.062C128.953 231.133 128.568 231.175 128.113 231.186C127.308 231.21 126.583 231.089 125.938 230.822C125.292 230.55 124.78 230.13 124.402 229.562C124.029 228.994 123.845 228.283 123.851 227.431V214.097ZM138.617 231.275C137.753 231.275 136.974 231.121 136.282 230.814C135.595 230.5 135.051 230.038 134.648 229.429C134.252 228.819 134.054 228.067 134.054 227.174C134.054 226.404 134.196 225.768 134.48 225.265C134.764 224.762 135.151 224.359 135.643 224.058C136.134 223.756 136.687 223.528 137.303 223.374C137.924 223.214 138.566 223.099 139.229 223.028C140.028 222.945 140.676 222.871 141.174 222.806C141.671 222.735 142.032 222.628 142.257 222.486C142.488 222.338 142.603 222.11 142.603 221.803V221.749C142.603 221.08 142.405 220.563 142.008 220.196C141.612 219.829 141.04 219.645 140.295 219.645C139.508 219.645 138.883 219.817 138.421 220.16C137.966 220.503 137.658 220.909 137.498 221.376L134.497 220.95C134.734 220.122 135.125 219.429 135.669 218.873C136.214 218.311 136.88 217.89 137.667 217.612C138.454 217.328 139.324 217.186 140.277 217.186C140.934 217.186 141.588 217.263 142.239 217.417C142.89 217.571 143.485 217.825 144.023 218.18C144.562 218.53 144.994 219.006 145.32 219.61C145.651 220.213 145.817 220.968 145.817 221.874V231H142.727V229.127H142.621C142.425 229.506 142.15 229.861 141.795 230.192C141.446 230.518 141.005 230.781 140.472 230.982C139.946 231.178 139.327 231.275 138.617 231.275ZM139.451 228.914C140.096 228.914 140.656 228.786 141.129 228.532C141.603 228.272 141.967 227.928 142.221 227.502C142.482 227.076 142.612 226.611 142.612 226.108V224.501C142.511 224.584 142.34 224.661 142.097 224.732C141.86 224.803 141.594 224.865 141.298 224.919C141.002 224.972 140.709 225.019 140.419 225.061C140.129 225.102 139.877 225.138 139.664 225.167C139.185 225.232 138.756 225.339 138.377 225.487C137.998 225.635 137.699 225.842 137.48 226.108C137.261 226.369 137.152 226.706 137.152 227.12C137.152 227.712 137.368 228.159 137.8 228.461C138.232 228.763 138.783 228.914 139.451 228.914ZM156.359 231.24C155.287 231.24 154.329 230.964 153.482 230.414C152.636 229.864 151.967 229.065 151.476 228.017C150.985 226.969 150.739 225.697 150.739 224.2C150.739 222.684 150.988 221.406 151.485 220.364C151.988 219.317 152.665 218.527 153.518 217.994C154.37 217.455 155.32 217.186 156.367 217.186C157.167 217.186 157.823 217.322 158.338 217.594C158.853 217.861 159.262 218.183 159.564 218.562C159.865 218.935 160.099 219.287 160.265 219.619H160.398V212.818H163.621V231H160.46V228.852H160.265C160.099 229.183 159.859 229.535 159.546 229.908C159.232 230.275 158.818 230.589 158.303 230.849C157.788 231.109 157.14 231.24 156.359 231.24ZM157.255 228.603C157.936 228.603 158.516 228.42 158.995 228.053C159.475 227.68 159.839 227.162 160.087 226.499C160.336 225.836 160.46 225.064 160.46 224.182C160.46 223.3 160.336 222.533 160.087 221.882C159.845 221.231 159.484 220.725 159.004 220.364C158.531 220.003 157.948 219.823 157.255 219.823C156.539 219.823 155.941 220.009 155.462 220.382C154.983 220.755 154.622 221.27 154.379 221.927C154.136 222.584 154.015 223.335 154.015 224.182C154.015 225.034 154.136 225.795 154.379 226.463C154.627 227.126 154.991 227.65 155.471 228.035C155.956 228.414 156.551 228.603 157.255 228.603ZM175.243 231.266C173.912 231.266 172.758 230.973 171.781 230.387C170.805 229.801 170.047 228.982 169.508 227.928C168.976 226.875 168.709 225.644 168.709 224.235C168.709 222.826 168.976 221.592 169.508 220.533C170.047 219.474 170.805 218.651 171.781 218.065C172.758 217.479 173.912 217.186 175.243 217.186C176.575 217.186 177.729 217.479 178.706 218.065C179.682 218.651 180.437 219.474 180.97 220.533C181.508 221.592 181.778 222.826 181.778 224.235C181.778 225.644 181.508 226.875 180.97 227.928C180.437 228.982 179.682 229.801 178.706 230.387C177.729 230.973 176.575 231.266 175.243 231.266ZM175.261 228.692C175.983 228.692 176.587 228.493 177.072 228.097C177.558 227.694 177.919 227.156 178.155 226.481C178.398 225.806 178.519 225.055 178.519 224.226C178.519 223.392 178.398 222.637 178.155 221.962C177.919 221.282 177.558 220.74 177.072 220.338C176.587 219.935 175.983 219.734 175.261 219.734C174.521 219.734 173.906 219.935 173.415 220.338C172.929 220.74 172.565 221.282 172.323 221.962C172.086 222.637 171.968 223.392 171.968 224.226C171.968 225.055 172.086 225.806 172.323 226.481C172.565 227.156 172.929 227.694 173.415 228.097C173.906 228.493 174.521 228.692 175.261 228.692ZM186.755 231V217.364H189.871V219.636H190.013C190.262 218.849 190.688 218.243 191.292 217.816C191.901 217.384 192.597 217.168 193.378 217.168C193.556 217.168 193.754 217.177 193.973 217.195C194.198 217.207 194.384 217.228 194.532 217.257V220.213C194.396 220.166 194.18 220.125 193.884 220.089C193.594 220.048 193.313 220.027 193.041 220.027C192.455 220.027 191.928 220.154 191.461 220.409C190.999 220.657 190.635 221.004 190.369 221.447C190.102 221.891 189.969 222.403 189.969 222.983V231H186.755Z" fill="black"/>
</g>
<defs>
<filter id="filter0_d_180_8" x="20.3156" y="212.57" width="178.217" height="31.5439" filterUnits="userSpaceOnUse" color-interpolation-filters="sRGB">
<feFlood flood-opacity="0" result="BackgroundImageFix"/>
<feColorMatrix in="SourceAlpha" type="matrix" values="0 0 0 0 0 0 0 0 0 0 0 0 0 0 0 0 0 0 127 0" result="hardAlpha"/>
<feOffset dy="4"/>
<feGaussianBlur stdDeviation="2"/>
<feComposite in2="hardAlpha" operator="out"/>
<feColorMatrix type="matrix" values="0 0 0 0 0 0 0 0 0 0 0 0 0 0 0 0 0 0 0.25 0"/>
<feBlend mode="normal" in2="BackgroundImageFix" result="effect1_dropShadow_180_8"/>
<feBlend mode="normal" in="SourceGraphic" in2="effect1_dropShadow_180_8" result="shape"/>
</filter>
</defs>
</svg>
