<svg width="347" height="48" viewBox="0 0 347 48" fill="none" xmlns="http://www.w3.org/2000/svg">
<g filter="url(#filter0_d_94_299)">
<path d="M30.3533 5.3644L30.3462 11.9404L21.4182 11.9317L21.3889 39.0517L13.181 39.0438L13.2102 11.9238L4.28224 11.9151L4.28934 5.33912L30.3533 5.3644ZM59.6992 25.2649C59.6984 26.0329 59.6495 26.8328 59.5526 27.6647L40.9766 27.6467C41.1029 29.3108 41.6295 30.5914 42.5565 31.4883C43.5156 32.3532 44.6831 32.7863 46.0591 32.7877C48.1071 32.7896 49.532 31.927 50.3339 30.1998L59.0699 30.2083C58.62 31.9678 57.8023 33.551 56.6168 34.9579C55.4632 36.3648 54.0061 37.4674 52.2452 38.2657C50.4843 39.0639 48.5159 39.462 46.3399 39.4599C43.7159 39.4574 41.3805 38.8951 39.3337 37.7731C37.2869 36.6511 35.6887 35.0496 34.5389 32.9685C33.3891 30.8874 32.8158 28.4548 32.8188 25.6708C32.8218 22.8868 33.3844 20.4554 34.5067 18.3764C35.6609 16.2976 37.2626 14.6991 39.3118 13.5811C41.361 12.4631 43.7136 11.9054 46.3696 11.9079C48.9616 11.9105 51.2651 12.4567 53.2799 13.5466C55.2947 14.6366 56.861 16.1901 57.9789 18.2072C59.1287 20.2243 59.7021 22.5769 59.6992 25.2649ZM51.3016 23.0967C51.3031 21.6887 50.8243 20.5683 49.8652 19.7353C48.9061 18.9024 47.7065 18.4852 46.2665 18.4838C44.8905 18.4825 43.7221 18.8814 42.7613 19.6804C41.8324 20.4795 41.2552 21.615 41.0296 23.0868L51.3016 23.0967ZM62.3969 25.6995C62.3999 22.9155 62.9625 20.484 64.0848 18.4051C65.239 16.3262 66.8247 14.7278 68.8419 13.6097C70.8912 12.4917 73.2278 11.934 75.8518 11.9365C79.2118 11.9398 82.0108 12.8225 84.2489 14.5847C86.519 16.3469 88.0043 18.8283 88.7049 22.029L79.9689 22.0205C79.2351 19.9718 77.8122 18.9464 75.7002 18.9444C74.1962 18.9429 72.9955 19.5338 72.0983 20.7169C71.201 21.868 70.7512 23.5316 70.7489 25.7076C70.7465 27.8836 71.1927 29.564 72.0874 30.7489C72.9822 31.9018 74.1816 32.4789 75.6856 32.4804C77.7976 32.4824 79.2227 31.4598 79.9609 29.4125L88.6969 29.421C87.9895 32.5563 86.4988 35.0189 84.2249 36.8087C81.951 38.5985 79.15 39.4918 75.822 39.4885C73.198 39.486 70.8626 38.9237 68.8158 37.8017C66.801 36.6798 65.2188 35.0782 64.069 32.9971C62.9513 30.916 62.3939 28.4835 62.3969 25.6995ZM109.57 12.0653C112.642 12.0682 115.105 13.0946 116.959 15.1444C118.813 17.1622 119.738 19.9471 119.734 23.4991L119.717 39.1471L111.557 39.1392L111.573 24.5952C111.575 22.8032 111.112 21.4107 110.185 20.4179C109.258 19.4249 108.011 18.9277 106.443 18.9262C104.875 18.9247 103.626 19.4195 102.697 20.4106C101.768 21.4017 101.303 22.7932 101.301 24.5852L101.285 39.1292L93.0769 39.1213L93.1153 3.60128L101.323 3.60925L101.31 15.9452C102.143 14.762 103.28 13.8191 104.721 13.1165C106.162 12.4139 107.778 12.0635 109.57 12.0653ZM134.219 22.2652C134.222 18.9372 134.946 15.9779 136.388 13.3873C137.831 10.7647 139.833 8.7346 142.395 7.29709C144.989 5.8276 147.917 5.09444 151.181 5.09761C155.181 5.10149 158.604 6.16081 161.45 8.27557C164.296 10.3903 166.196 13.2722 167.153 16.9211L158.129 16.9124C157.458 15.5037 156.499 14.4308 155.252 13.6936C154.037 12.9564 152.645 12.587 151.077 12.5855C148.549 12.5831 146.5 13.4611 144.93 15.2196C143.36 16.978 142.574 19.3293 142.571 22.2733C142.568 25.2173 143.349 27.57 144.915 29.3315C146.481 31.0931 148.528 31.975 151.056 31.9775C152.624 31.979 154.017 31.6124 155.233 30.8776C156.482 30.1428 157.443 29.0717 158.117 27.6643L167.141 27.6731C166.177 31.3202 164.27 34.1983 161.42 36.3076C158.569 38.3848 155.144 39.4215 151.144 39.4176C147.88 39.4144 144.953 38.6916 142.363 37.2491C139.804 35.7746 137.806 33.7407 136.369 31.1473C134.932 28.5539 134.215 25.5932 134.219 22.2652ZM176.315 9.63399C174.875 9.63259 173.691 9.21545 172.764 8.38255C171.869 7.51768 171.422 6.46125 171.424 5.21325C171.425 3.93325 171.874 2.87768 172.771 2.04655C173.7 1.18345 174.885 0.7526 176.325 0.753996C177.733 0.755362 178.884 1.18848 179.779 2.05335C180.706 2.88625 181.169 3.9427 181.168 5.2227C181.166 6.4707 180.701 7.52625 179.772 8.38935C178.875 9.22048 177.723 9.63536 176.315 9.63399ZM180.392 12.4219L180.363 39.2059L172.155 39.198L172.184 12.414L180.392 12.4219ZM184.694 25.7701C184.697 23.0181 185.211 20.6026 186.238 18.5236C187.296 16.4446 188.722 14.846 190.515 13.7278C192.308 12.6095 194.309 12.0514 196.517 12.0536C198.277 12.0553 199.876 12.4248 201.315 13.1622C202.787 13.8997 203.938 14.8928 204.768 16.1416L204.782 3.7096L212.99 3.71757L212.951 39.2375L204.743 39.2296L204.747 35.3896C203.978 36.6688 202.873 37.6918 201.432 38.4584C200.023 39.225 198.375 39.6074 196.487 39.6056C194.279 39.6034 192.279 39.0415 190.489 37.9198C188.698 36.766 187.276 35.1486 186.222 33.0676C185.2 30.9546 184.691 28.5221 184.694 25.7701ZM204.758 25.8376C204.76 23.7896 204.186 22.173 203.035 20.9879C201.916 19.8028 200.541 19.2095 198.909 19.2079C197.277 19.2063 195.884 19.797 194.731 20.9799C193.61 22.1308 193.048 23.7302 193.046 25.7782C193.044 27.8262 193.602 29.4588 194.72 30.6759C195.871 31.861 197.263 32.4543 198.895 32.4559C200.527 32.4575 201.903 31.8668 203.024 30.6839C204.178 29.501 204.755 27.8856 204.758 25.8376ZM217.272 25.8017C217.275 23.0497 217.789 20.6342 218.816 18.5552C219.874 16.4762 221.3 14.8776 223.093 13.7594C224.886 12.6411 226.887 12.083 229.095 12.0852C230.983 12.087 232.63 12.4726 234.037 13.242C235.477 14.0114 236.58 15.0205 237.346 16.2692L237.35 12.4772L245.558 12.4852L245.529 39.2691L237.321 39.2612L237.325 35.4692C236.524 36.7164 235.403 37.7233 233.962 38.4899C232.553 39.2566 230.905 39.639 229.017 39.6371C226.841 39.635 224.858 39.0731 223.067 37.9514C221.276 36.7976 219.854 35.1802 218.8 33.0992C217.778 30.9862 217.269 28.5537 217.272 25.8017ZM237.336 25.8692C237.338 23.8212 236.764 22.2046 235.613 21.0195C234.494 19.8344 233.119 19.2411 231.487 19.2395C229.855 19.2379 228.462 19.8286 227.309 21.0115C226.188 22.1624 225.626 23.7618 225.624 25.8098C225.622 27.8578 226.18 29.4904 227.299 30.7075C228.449 31.8926 229.841 32.4859 231.473 32.4875C233.105 32.4891 234.481 31.8984 235.603 30.7155C236.756 29.5326 237.334 27.9172 237.336 25.8692ZM249.85 25.8333C249.853 23.0813 250.368 20.6658 251.394 18.5868C252.452 16.5079 253.878 14.9092 255.671 13.791C257.464 12.6727 259.465 12.1147 261.673 12.1168C263.433 12.1185 265.032 12.4881 266.472 13.2254C267.943 13.9629 269.094 14.956 269.924 16.2048L269.938 3.77281L278.146 3.78077L278.107 39.3007L269.899 39.2928L269.904 35.4528C269.134 36.732 268.029 37.755 266.588 38.5216C265.179 39.2882 263.531 39.6706 261.643 39.6688C259.435 39.6666 257.436 39.1047 255.645 37.983C253.854 36.8292 252.432 35.2118 251.378 33.1308C250.356 31.0178 249.847 28.5853 249.85 25.8333ZM269.914 25.9008C269.916 23.8528 269.342 22.2362 268.191 21.0511C267.072 19.866 265.697 19.2727 264.065 19.2711C262.433 19.2695 261.04 19.8602 259.887 21.0431C258.766 22.194 258.204 23.7934 258.202 25.8414C258.2 27.8894 258.758 29.522 259.877 30.7391C261.027 31.9242 262.419 32.5175 264.051 32.5191C265.683 32.5207 267.059 31.93 268.181 30.7471C269.334 29.5642 269.912 27.9488 269.914 25.9008ZM282.428 25.8649C282.431 23.1129 282.946 20.6974 283.972 18.6184C285.03 16.5395 286.456 14.9408 288.249 13.8226C290.042 12.7043 292.043 12.1463 294.251 12.1484C296.139 12.1502 297.786 12.5358 299.194 13.3052C300.633 14.0746 301.736 15.0837 302.502 16.3324L302.506 12.5404L310.714 12.5484L310.686 39.3324L302.478 39.3244L302.482 35.5324C301.68 36.7796 300.559 37.7865 299.118 38.5531C297.71 39.3198 296.061 39.7022 294.173 39.7003C291.997 39.6982 290.014 39.1363 288.223 38.0146C286.432 36.8608 285.01 35.2434 283.956 33.1624C282.934 31.0494 282.425 28.6169 282.428 25.8649ZM302.492 25.9324C302.494 23.8844 301.92 22.2678 300.769 21.0827C299.651 19.8976 298.275 19.3043 296.643 19.3027C295.011 19.3011 293.619 19.8918 292.465 21.0747C291.344 22.2256 290.782 23.825 290.78 25.873C290.778 27.921 291.336 29.5536 292.455 30.7707C293.605 31.9558 294.997 32.5491 296.629 32.5507C298.261 32.5523 299.637 31.9616 300.759 30.7787C301.912 29.5958 302.49 27.9804 302.492 25.9324ZM287.965 10.2703C288.738 5.53504 290.949 3.16919 294.597 3.17273C295.301 3.17341 295.908 3.286 296.42 3.51049C296.964 3.70302 297.62 4.00766 298.387 4.4244C298.963 4.74496 299.427 4.98541 299.778 5.14575C300.13 5.2741 300.498 5.33845 300.882 5.33883C302.066 5.33997 302.755 4.62064 302.949 3.18083L307.173 3.18493C306.399 7.92018 304.189 10.286 300.541 10.2825C299.837 10.2818 299.213 10.1852 298.669 9.99268C298.157 9.76818 297.518 9.44756 296.75 9.03082C296.175 8.71026 295.711 8.48581 295.359 8.35747C295.007 8.19713 294.639 8.11677 294.255 8.1164C293.071 8.11525 292.366 8.83457 292.141 10.2743L287.965 10.2703ZM328.815 39.7339C326.191 39.7314 323.824 39.1691 321.713 38.047C319.634 36.925 317.988 35.3234 316.774 33.2423C315.592 31.1611 315.003 28.7285 315.006 25.9445C315.009 23.1925 315.62 20.7771 316.838 18.6983C318.056 16.5875 319.722 14.9731 321.835 13.8552C323.948 12.7372 326.317 12.1795 328.941 12.182C331.565 12.1846 333.932 12.7469 336.043 13.8689C338.154 14.991 339.816 16.6086 341.03 18.7218C342.244 20.803 342.849 23.2195 342.846 25.9715C342.843 28.7235 342.217 31.1549 340.966 33.2657C339.748 35.3445 338.066 36.9429 335.921 38.0608C333.808 39.1788 331.439 39.7365 328.815 39.7339ZM328.823 32.6299C330.391 32.6315 331.72 32.0568 332.809 30.9058C333.93 29.7549 334.492 28.1074 334.494 25.9634C334.496 23.8194 333.954 22.1709 332.867 21.0179C331.813 19.8648 330.501 19.2876 328.933 19.286C327.333 19.2845 326.005 19.8592 324.947 21.0102C323.89 22.1292 323.36 23.7766 323.358 25.9526C323.356 28.0966 323.866 29.7451 324.889 30.8981C325.944 32.0511 327.255 32.6284 328.823 32.6299Z" fill="url(#paint0_linear_94_299)"/>
</g>
<defs>
<filter id="filter0_d_94_299" x="0.252563" y="0.586914" width="346.621" height="47.1602" filterUnits="userSpaceOnUse" color-interpolation-filters="sRGB">
<feFlood flood-opacity="0" result="BackgroundImageFix"/>
<feColorMatrix in="SourceAlpha" type="matrix" values="0 0 0 0 0 0 0 0 0 0 0 0 0 0 0 0 0 0 127 0" result="hardAlpha"/>
<feOffset dy="4"/>
<feGaussianBlur stdDeviation="2"/>
<feComposite in2="hardAlpha" operator="out"/>
<feColorMatrix type="matrix" values="0 0 0 0 0 0 0 0 0 0 0 0 0 0 0 0 0 0 0.25 0"/>
<feBlend mode="normal" in2="BackgroundImageFix" result="effect1_dropShadow_94_299"/>
<feBlend mode="normal" in="SourceGraphic" in2="effect1_dropShadow_94_299" result="shape"/>
</filter>
<linearGradient id="paint0_linear_94_299" x1="173.713" y1="-13.8005" x2="173.631" y2="70.7653" gradientUnits="userSpaceOnUse">
<stop offset="0.411458" stop-color="white"/>
<stop offset="0.520833" stop-color="#B0A5A5"/>
<stop offset="0.619792" stop-color="white"/>
</linearGradient>
</defs>
</svg>
