<svg width="330" height="42" viewBox="0 0 330 42" fill="none" xmlns="http://www.w3.org/2000/svg">
<g filter="url(#filter0_d_97_5)">
<path d="M25.9511 4.92V10.4H18.5111V33H11.6711V10.4H4.23109V4.92H25.9511ZM54.0239 21.48C54.0239 22.12 53.9839 22.7867 53.9039 23.48H38.4239C38.5306 24.8667 38.9706 25.9333 39.7439 26.68C40.5439 27.4 41.5172 27.76 42.6639 27.76C44.3706 27.76 45.5572 27.04 46.2239 25.6H53.5039C53.1306 27.0667 52.4506 28.3867 51.4639 29.56C50.5039 30.7333 49.2906 31.6533 47.8239 32.32C46.3572 32.9867 44.7172 33.32 42.9039 33.32C40.7172 33.32 38.7706 32.8533 37.0639 31.92C35.3572 30.9867 34.0239 29.6533 33.0639 27.92C32.1039 26.1867 31.6239 24.16 31.6239 21.84C31.6239 19.52 32.0906 17.4933 33.0239 15.76C33.9839 14.0267 35.3172 12.6933 37.0239 11.76C38.7306 10.8267 40.6906 10.36 42.9039 10.36C45.0639 10.36 46.9839 10.8133 48.6639 11.72C50.3439 12.6267 51.6506 13.92 52.5839 15.6C53.5439 17.28 54.0239 19.24 54.0239 21.48ZM47.0239 19.68C47.0239 18.5067 46.6239 17.5733 45.8239 16.88C45.0239 16.1867 44.0239 15.84 42.8239 15.84C41.6772 15.84 40.7039 16.1733 39.9039 16.84C39.1306 17.5067 38.6506 18.4533 38.4639 19.68H47.0239ZM59.8723 21.84C59.8723 19.52 60.339 17.4933 61.2723 15.76C62.2323 14.0267 63.5523 12.6933 65.2323 11.76C66.939 10.8267 68.8857 10.36 71.0723 10.36C73.8723 10.36 76.2057 11.0933 78.0723 12.56C79.9657 14.0267 81.2057 16.0933 81.7923 18.76H74.5123C73.899 17.0533 72.7123 16.2 70.9523 16.2C69.699 16.2 68.699 16.6933 67.9523 17.68C67.2057 18.64 66.8323 20.0267 66.8323 21.84C66.8323 23.6533 67.2057 25.0533 67.9523 26.04C68.699 27 69.699 27.48 70.9523 27.48C72.7123 27.48 73.899 26.6267 74.5123 24.92H81.7923C81.2057 27.5333 79.9657 29.5867 78.0723 31.08C76.179 32.5733 73.8457 33.32 71.0723 33.32C68.8857 33.32 66.939 32.8533 65.2323 31.92C63.5523 30.9867 62.2323 29.6533 61.2723 27.92C60.339 26.1867 59.8723 24.16 59.8723 21.84ZM102.771 10.44C105.331 10.44 107.384 11.2933 108.931 13C110.478 14.68 111.251 17 111.251 19.96V33H104.451V20.88C104.451 19.3867 104.064 18.2267 103.291 17.4C102.518 16.5733 101.478 16.16 100.171 16.16C98.8644 16.16 97.8244 16.5733 97.0511 17.4C96.2778 18.2267 95.8911 19.3867 95.8911 20.88V33H89.0511V3.4H95.8911V13.68C96.5844 12.6933 97.5311 11.9067 98.7311 11.32C99.9311 10.7333 101.278 10.44 102.771 10.44ZM130.521 18.92C130.521 16.1467 131.121 13.68 132.321 11.52C133.521 9.33333 135.187 7.64 137.321 6.44C139.481 5.21333 141.921 4.6 144.641 4.6C147.974 4.6 150.827 5.48 153.201 7.24C155.574 9 157.161 11.4 157.961 14.44H150.441C149.881 13.2667 149.081 12.3733 148.041 11.76C147.027 11.1467 145.867 10.84 144.561 10.84C142.454 10.84 140.747 11.5733 139.441 13.04C138.134 14.5067 137.481 16.4667 137.481 18.92C137.481 21.3733 138.134 23.3333 139.441 24.8C140.747 26.2667 142.454 27 144.561 27C145.867 27 147.027 26.6933 148.041 26.08C149.081 25.4667 149.881 24.5733 150.441 23.4H157.961C157.161 26.44 155.574 28.84 153.201 30.6C150.827 32.3333 147.974 33.2 144.641 33.2C141.921 33.2 139.481 32.6 137.321 31.4C135.187 30.1733 133.521 28.48 132.321 26.32C131.121 24.16 130.521 21.6933 130.521 18.92ZM169.19 8.36C167.99 8.36 167.003 8.01333 166.23 7.32C165.483 6.6 165.11 5.72 165.11 4.68C165.11 3.61333 165.483 2.73333 166.23 2.04C167.003 1.32 167.99 0.959998 169.19 0.959998C170.363 0.959998 171.323 1.32 172.07 2.04C172.843 2.73333 173.23 3.61333 173.23 4.68C173.23 5.72 172.843 6.6 172.07 7.32C171.323 8.01333 170.363 8.36 169.19 8.36ZM172.59 10.68V33H165.75V10.68H172.59ZM179.786 21.8C179.786 19.5067 180.213 17.4933 181.066 15.76C181.946 14.0267 183.133 12.6933 184.626 11.76C186.12 10.8267 187.786 10.36 189.626 10.36C191.093 10.36 192.426 10.6667 193.626 11.28C194.853 11.8933 195.813 12.72 196.506 13.76V3.4H203.346V33H196.506V29.8C195.866 30.8667 194.946 31.72 193.746 32.36C192.573 33 191.2 33.32 189.626 33.32C187.786 33.32 186.12 32.8533 184.626 31.92C183.133 30.96 181.946 29.6133 181.066 27.88C180.213 26.12 179.786 24.0933 179.786 21.8ZM196.506 21.84C196.506 20.1333 196.026 18.7867 195.066 17.8C194.133 16.8133 192.986 16.32 191.626 16.32C190.266 16.32 189.106 16.8133 188.146 17.8C187.213 18.76 186.746 20.0933 186.746 21.8C186.746 23.5067 187.213 24.8667 188.146 25.88C189.106 26.8667 190.266 27.36 191.626 27.36C192.986 27.36 194.133 26.8667 195.066 25.88C196.026 24.8933 196.506 23.5467 196.506 21.84ZM210.535 21.8C210.535 19.5067 210.962 17.4933 211.815 15.76C212.695 14.0267 213.882 12.6933 215.375 11.76C216.868 10.8267 218.535 10.36 220.375 10.36C221.948 10.36 223.322 10.68 224.495 11.32C225.695 11.96 226.615 12.8 227.255 13.84V10.68H234.095V33H227.255V29.84C226.588 30.88 225.655 31.72 224.455 32.36C223.282 33 221.908 33.32 220.335 33.32C218.522 33.32 216.868 32.8533 215.375 31.92C213.882 30.96 212.695 29.6133 211.815 27.88C210.962 26.12 210.535 24.0933 210.535 21.8ZM227.255 21.84C227.255 20.1333 226.775 18.7867 225.815 17.8C224.882 16.8133 223.735 16.32 222.375 16.32C221.015 16.32 219.855 16.8133 218.895 17.8C217.962 18.76 217.495 20.0933 217.495 21.8C217.495 23.5067 217.962 24.8667 218.895 25.88C219.855 26.8667 221.015 27.36 222.375 27.36C223.735 27.36 224.882 26.8667 225.815 25.88C226.775 24.8933 227.255 23.5467 227.255 21.84ZM241.283 21.8C241.283 19.5067 241.71 17.4933 242.563 15.76C243.443 14.0267 244.63 12.6933 246.123 11.76C247.617 10.8267 249.283 10.36 251.123 10.36C252.59 10.36 253.923 10.6667 255.123 11.28C256.35 11.8933 257.31 12.72 258.003 13.76V3.4H264.843V33H258.003V29.8C257.363 30.8667 256.443 31.72 255.243 32.36C254.07 33 252.697 33.32 251.123 33.32C249.283 33.32 247.617 32.8533 246.123 31.92C244.63 30.96 243.443 29.6133 242.563 27.88C241.71 26.12 241.283 24.0933 241.283 21.8ZM258.003 21.84C258.003 20.1333 257.523 18.7867 256.563 17.8C255.63 16.8133 254.483 16.32 253.123 16.32C251.763 16.32 250.603 16.8133 249.643 17.8C248.71 18.76 248.243 20.0933 248.243 21.8C248.243 23.5067 248.71 24.8667 249.643 25.88C250.603 26.8667 251.763 27.36 253.123 27.36C254.483 27.36 255.63 26.8667 256.563 25.88C257.523 24.8933 258.003 23.5467 258.003 21.84ZM272.032 21.8C272.032 19.5067 272.458 17.4933 273.312 15.76C274.192 14.0267 275.378 12.6933 276.872 11.76C278.365 10.8267 280.032 10.36 281.872 10.36C283.445 10.36 284.818 10.68 285.992 11.32C287.192 11.96 288.112 12.8 288.752 13.84V10.68H295.592V33H288.752V29.84C288.085 30.88 287.152 31.72 285.952 32.36C284.778 33 283.405 33.32 281.832 33.32C280.018 33.32 278.365 32.8533 276.872 31.92C275.378 30.96 274.192 29.6133 273.312 27.88C272.458 26.12 272.032 24.0933 272.032 21.8ZM288.752 21.84C288.752 20.1333 288.272 18.7867 287.312 17.8C286.378 16.8133 285.232 16.32 283.872 16.32C282.512 16.32 281.352 16.8133 280.392 17.8C279.458 18.76 278.992 20.0933 278.992 21.8C278.992 23.5067 279.458 24.8667 280.392 25.88C281.352 26.8667 282.512 27.36 283.872 27.36C285.232 27.36 286.378 26.8667 287.312 25.88C288.272 24.8933 288.752 23.5467 288.752 21.84ZM276.632 8.8C277.272 4.85333 279.112 2.88 282.152 2.88C282.738 2.88 283.245 2.97333 283.672 3.16C284.125 3.32 284.672 3.57333 285.312 3.92C285.792 4.18667 286.178 4.38667 286.472 4.52C286.765 4.62667 287.072 4.68 287.392 4.68C288.378 4.68 288.952 4.08 289.112 2.88H292.632C291.992 6.82667 290.152 8.8 287.112 8.8C286.525 8.8 286.005 8.72 285.552 8.56C285.125 8.37333 284.592 8.10667 283.952 7.76C283.472 7.49333 283.085 7.30667 282.792 7.2C282.498 7.06667 282.192 7 281.872 7C280.885 7 280.298 7.6 280.112 8.8H276.632ZM314.3 33.32C312.113 33.32 310.14 32.8533 308.38 31.92C306.647 30.9867 305.273 29.6533 304.26 27.92C303.273 26.1867 302.78 24.16 302.78 21.84C302.78 19.5467 303.287 17.5333 304.3 15.8C305.313 14.04 306.7 12.6933 308.46 11.76C310.22 10.8267 312.193 10.36 314.38 10.36C316.567 10.36 318.54 10.8267 320.3 11.76C322.06 12.6933 323.447 14.04 324.46 15.8C325.473 17.5333 325.98 19.5467 325.98 21.84C325.98 24.1333 325.46 26.16 324.42 27.92C323.407 29.6533 322.007 30.9867 320.22 31.92C318.46 32.8533 316.487 33.32 314.3 33.32ZM314.3 27.4C315.607 27.4 316.713 26.92 317.62 25.96C318.553 25 319.02 23.6267 319.02 21.84C319.02 20.0533 318.567 18.68 317.66 17.72C316.78 16.76 315.687 16.28 314.38 16.28C313.047 16.28 311.94 16.76 311.06 17.72C310.18 18.6533 309.74 20.0267 309.74 21.84C309.74 23.6267 310.167 25 311.02 25.96C311.9 26.92 312.993 27.4 314.3 27.4Z" fill="#365DA7"/>
</g>
<defs>
<filter id="filter0_d_97_5" x="0.231079" y="0.959961" width="329.749" height="40.3599" filterUnits="userSpaceOnUse" color-interpolation-filters="sRGB">
<feFlood flood-opacity="0" result="BackgroundImageFix"/>
<feColorMatrix in="SourceAlpha" type="matrix" values="0 0 0 0 0 0 0 0 0 0 0 0 0 0 0 0 0 0 127 0" result="hardAlpha"/>
<feOffset dy="4"/>
<feGaussianBlur stdDeviation="2"/>
<feComposite in2="hardAlpha" operator="out"/>
<feColorMatrix type="matrix" values="0 0 0 0 0 0 0 0 0 0 0 0 0 0 0 0 0 0 0.25 0"/>
<feBlend mode="normal" in2="BackgroundImageFix" result="effect1_dropShadow_97_5"/>
<feBlend mode="normal" in="SourceGraphic" in2="effect1_dropShadow_97_5" result="shape"/>
</filter>
</defs>
</svg>
