<svg width="71" height="61" viewBox="0 0 71 61" fill="none" xmlns="http://www.w3.org/2000/svg">
<path d="M33.1758 47.3038C27.9163 47.0885 22.9548 45.1272 19.3217 41.8272C15.6887 38.5273 13.6634 34.1424 13.6667 29.5833C13.6667 19.7913 22.8575 11.8333 34.1667 11.8333C45.1683 11.8333 54.12 19.3179 54.6325 28.7254L47.4575 26.8617C46.8991 24.8109 45.7182 22.9265 44.0369 21.4032C42.3557 19.8799 40.2351 18.773 37.8944 18.197C35.5537 17.6209 33.0777 17.5966 30.7225 18.1265C28.3673 18.6565 26.2182 19.7214 24.4975 21.2113C22.7768 22.7012 21.5469 24.5619 20.9349 26.6012C20.3228 28.6405 20.3509 30.7843 21.0162 32.811C21.6815 34.8377 22.9599 36.6739 24.7192 38.1296C26.4785 39.5853 28.6548 40.6077 31.0233 41.0913L33.1758 47.3038ZM68.3333 29.5833C68.3333 30.4708 68.2992 31.3583 68.1967 32.2458L61.4658 30.5004C61.5 30.2046 61.5 29.8792 61.5 29.5833C61.5 16.5075 49.2683 5.91667 34.1667 5.91667C19.065 5.91667 6.83333 16.5075 6.83333 29.5833C6.83333 42.6592 19.065 53.25 34.1667 53.25C34.5083 53.25 34.8842 53.25 35.2258 53.2204L37.2417 59.0483C36.2167 59.1371 35.1917 59.1667 34.1667 59.1667C15.3067 59.1667 0 45.9133 0 29.5833C0 13.2533 15.3067 0 34.1667 0C53.0267 0 68.3333 13.2533 68.3333 29.5833ZM55.4525 42.1858L68.3333 38.4583L34.1667 29.5833L44.4167 59.1667L48.7217 48.0138L63.3108 60.6458L70.0758 54.7883L55.4525 42.1858Z" fill="#F8F8F8"/>
</svg>
